<mxfile host="app.diagrams.net" modified="2023-04-23T20:46:55.704Z" agent="Mozilla/5.0 (Windows NT 10.0; Win64; x64) AppleWebKit/537.36 (KHTML, like Gecko) Chrome/112.0.5615.50 Safari/537.36 Avast/112.0.20815.50" etag="ZASM_21F0_yh_13_MpNc" version="21.2.1" type="github">
  <diagram name="Page-1" id="f1b7ffb7-ca1e-a977-7cf5-a751b3c06c05">
    <mxGraphModel dx="4585" dy="1507" grid="1" gridSize="10" guides="1" tooltips="1" connect="1" arrows="1" fold="1" page="1" pageScale="1" pageWidth="826" pageHeight="1169" background="none" math="0" shadow="0">
      <root>
        <mxCell id="0" />
        <mxCell id="1" parent="0" />
        <mxCell id="14" value="" style="verticalLabelPosition=bottom;verticalAlign=top;strokeWidth=1;shape=mxgraph.mockup.graphics.iconGrid;strokeColor=#CCCCCC;gridSize=1,1;" parent="1" vertex="1">
          <mxGeometry x="970" y="250" width="200" height="410" as="geometry" />
        </mxCell>
        <mxCell id="3" value="" style="line;strokeWidth=1" parent="1" vertex="1">
          <mxGeometry x="20" y="60" width="780" height="10" as="geometry" />
        </mxCell>
        <mxCell id="5" value="Para você" style="text;spacingTop=-5;" parent="1" vertex="1">
          <mxGeometry x="70" y="25.000000000000085" width="30" height="20" as="geometry" />
        </mxCell>
        <mxCell id="6" value="Para sua empresa" style="text;spacingTop=-5;" parent="1" vertex="1">
          <mxGeometry x="139.99999999999994" y="25.000000000000156" width="30" height="20" as="geometry" />
        </mxCell>
        <mxCell id="7" value="Cadastre-se" style="text;spacingTop=-5;" parent="1" vertex="1">
          <mxGeometry x="640" y="25" width="70" height="20" as="geometry" />
        </mxCell>
        <mxCell id="9" value="Lorem ipsum dolor sit amet, consectetur adipisicing elit, sed do eiusmod tempor incididunt ut labore et dolore magna aliqua. Ut enim ad minim veniam, quis nostrud exercitation ullamco laboris nisi ut aliquip ex ea commodo consequat. Duis aute irure dolor in reprehenderit in voluptate velit esse cillum dolore eu fugiat nulla pariatur. Excepteur sint occaecat cupidatat non proident, sunt in culpa qui officia deserunt mollit anim id est laborum.&#xa;Sed ut perspiciatis unde omnis iste natus error sit voluptatem accusantium doloremque laudantium, totam rem aperiam, eaque ipsa quae ab illo inventore veritatis et quasi architecto beatae vitae dicta sunt explicabo. Nemo enim ipsam voluptatem quia voluptas sit aspernatur aut odit aut fugit, sed quia consequuntur magni dolores eos qui ratione voluptatem sequi nesciunt. Neque porro quisquam est, qui dolorem ipsum quia dolor sit amet, consectetur, adipisci velit, sed quia non numquam eius modi tempora incidunt ut labore et dolore magnam aliquam quaerat voluptatem. Ut enim ad minima veniam, quis nostrum exercitationem ullam corporis suscipit laboriosam, nisi ut aliquid ex ea commodi consequatur? Quis autem vel eum iure reprehenderit qui in ea voluptate velit esse quam nihil molestiae consequatur, vel illum qui dolorem eum fugiat quo voluptas nulla pariatur?" style="text;spacingTop=-5;whiteSpace=wrap;align=left" parent="1" vertex="1">
          <mxGeometry x="1170" y="40" width="530" height="250" as="geometry" />
        </mxCell>
        <mxCell id="10" value="Latest Posts" style="text;spacingTop=-5;" parent="1" vertex="1">
          <mxGeometry x="925" y="120" width="30" height="20" as="geometry" />
        </mxCell>
        <mxCell id="12" value="Lorem ipsum dolor sit amet, consectetur adipisicing elit, sed do eiusmod tempor incididunt ut labore et dolore magna aliqua. Ut enim ad minim veniam, quis nostrud exercitation ullamco laboris nisi ut aliquip ex ea commodo consequat. Duis aute irure dolor in reprehenderit in voluptate velit esse ..." style="text;spacingTop=-5;whiteSpace=wrap;align=left" parent="1" vertex="1">
          <mxGeometry x="925" y="150" width="190" height="140" as="geometry" />
        </mxCell>
        <mxCell id="15" value="More" style="text;spacingTop=-5;fontStyle=4" parent="1" vertex="1">
          <mxGeometry x="1075" y="290" width="30" height="20" as="geometry" />
        </mxCell>
        <mxCell id="16" value="Yesterday" style="text;spacingTop=-5;fontStyle=0;align=right" parent="1" vertex="1">
          <mxGeometry x="1075" y="310" width="30" height="20" as="geometry" />
        </mxCell>
        <mxCell id="17" value="Lorem ipsum dolor sit amet, consectetur adipisicing elit, sed do eiusmod tempor incididunt ut labore et dolore magna aliqua. Ut enim ad minim veniam, quis nostrud exercitation ullamco laboris nisi ut aliquip ex ea commodo consequat. Duis aute irure dolor in reprehenderit in voluptate velit esse ..." style="text;spacingTop=-5;whiteSpace=wrap;align=left" parent="1" vertex="1">
          <mxGeometry x="920" y="330" width="190" height="140" as="geometry" />
        </mxCell>
        <mxCell id="18" value="More" style="text;spacingTop=-5;fontStyle=4" parent="1" vertex="1">
          <mxGeometry x="1125" y="580" width="30" height="20" as="geometry" />
        </mxCell>
        <mxCell id="19" value="1 week ago" style="text;spacingTop=-5;fontStyle=0;align=right" parent="1" vertex="1">
          <mxGeometry x="1125" y="600" width="30" height="20" as="geometry" />
        </mxCell>
        <mxCell id="20" value="" style="verticalLabelPosition=bottom;verticalAlign=top;strokeWidth=1;shape=mxgraph.mockup.graphics.iconGrid;strokeColor=#CCCCCC;gridSize=1,1;" parent="1" vertex="1">
          <mxGeometry x="20" y="15" width="40" height="40" as="geometry" />
        </mxCell>
        <mxCell id="22" value="Sobre nós" style="text;spacingTop=-5;" parent="1" vertex="1">
          <mxGeometry x="260" y="25" width="60" height="20" as="geometry" />
        </mxCell>
        <mxCell id="23" value="Sinistros" style="text;spacingTop=-5;" parent="1" vertex="1">
          <mxGeometry x="340" y="25" width="50" height="20" as="geometry" />
        </mxCell>
        <mxCell id="24" value="Agenda ESG" style="text;spacingTop=-5;" parent="1" vertex="1">
          <mxGeometry x="413" y="25" width="77" height="20" as="geometry" />
        </mxCell>
        <mxCell id="25" value="" style="verticalLabelPosition=bottom;verticalAlign=top;strokeWidth=1;shape=mxgraph.mockup.graphics.iconGrid;strokeColor=#CCCCCC;gridSize=1,1;" parent="1" vertex="1">
          <mxGeometry y="70" width="810" height="260" as="geometry" />
        </mxCell>
        <mxCell id="26" value="Video introdutório" style="text;spacingTop=-5;align=center;verticalAlign=middle;fontSize=36;fontColor=#CCCCCC" parent="1" vertex="1">
          <mxGeometry x="20" y="80" width="790" height="250" as="geometry" />
        </mxCell>
        <mxCell id="27" value="" style="verticalLabelPosition=bottom;verticalAlign=top;strokeWidth=1;shape=mxgraph.mockup.graphics.iconGrid;strokeColor=#CCCCCC;gridSize=1,1;" parent="1" vertex="1">
          <mxGeometry x="20" y="340" width="790" height="240" as="geometry" />
        </mxCell>
        <mxCell id="29" value="Lorem ipsum dolor sit amet, consectetur adipisicing elit, sed do eiusmod tempor incididunt ut labore et dolore magna aliqua. Ut enim ad minim veniam, quis nostrud exercitation ullamco laboris nisi ut aliquip ex ea commodo consequat. Duis aute irure dolor in reprehenderit in voluptate velit esse cillum dolore eu fugiat nulla pariatur. Excepteur sint occaecat cupidatat non proident, sunt in culpa qui officia deserunt mollit anim id est laborum.&#xa;Sed ut perspiciatis unde omnis iste natus error sit voluptatem accusantium doloremque laudantium, totam rem aperiam, eaque ipsa quae ab illo inventore veritatis et quasi architecto beatae vitae dicta sunt explicabo. Nemo enim ipsam voluptatem quia voluptas sit aspernatur aut odit aut fugit, sed quia consequuntur magni dolores eos qui ratione voluptatem sequi nesciunt. Neque porro quisquam est, qui dolorem ipsum quia dolor sit amet, consectetur, adipisci velit, sed quia non numquam eius modi tempora incidunt ut labore et dolore magnam aliquam quaerat voluptatem. Ut enim ad minima veniam, quis nostrum exercitationem ullam corporis suscipit laboriosam, nisi ut aliquid ex ea commodi consequatur? Quis autem vel eum iure reprehenderit qui in ea voluptate velit esse quam nihil molestiae consequatur, vel illum qui dolorem eum fugiat quo voluptas nulla pariatur?" style="text;spacingTop=-5;whiteSpace=wrap;align=left" parent="1" vertex="1">
          <mxGeometry x="240" y="350" width="530" height="250" as="geometry" />
        </mxCell>
        <mxCell id="30" value="" style="verticalLabelPosition=bottom;verticalAlign=top;strokeWidth=1;shape=mxgraph.mockup.graphics.iconGrid;strokeColor=#CCCCCC;gridSize=1,1;" parent="1" vertex="1">
          <mxGeometry x="20" y="600" width="790" height="220" as="geometry" />
        </mxCell>
        <mxCell id="32" value="" style="verticalLabelPosition=bottom;verticalAlign=top;strokeWidth=1;shape=mxgraph.mockup.graphics.iconGrid;strokeColor=#CCCCCC;gridSize=1,1;" parent="1" vertex="1">
          <mxGeometry x="-1220" y="1220" width="570" height="480" as="geometry" />
        </mxCell>
        <mxCell id="35" value="" style="verticalLabelPosition=bottom;verticalAlign=top;strokeWidth=1;shape=mxgraph.mockup.graphics.iconGrid;strokeColor=#CCCCCC;gridSize=1,1;" parent="1" vertex="1">
          <mxGeometry x="-910" y="1510" width="360" height="200" as="geometry" />
        </mxCell>
        <mxCell id="36" value="Agenda ESG na Pottencial" style="text;spacingTop=-5;align=center;verticalAlign=middle;fontSize=36;fontColor=#CCCCCC" parent="1" vertex="1">
          <mxGeometry x="-1300" y="1300" width="580" height="200" as="geometry" />
        </mxCell>
        <mxCell id="58" value="" style="verticalLabelPosition=bottom;verticalAlign=top;strokeWidth=1;shape=mxgraph.mockup.graphics.iconGrid;strokeColor=#CCCCCC;gridSize=1,1;" parent="1" vertex="1">
          <mxGeometry x="20" y="850" width="770" height="400" as="geometry" />
        </mxCell>
        <mxCell id="bBX2dSUzeOyGn-nsTEc2-65" value="Fazer Login" style="text;spacingTop=-5;fillColor=#f5f5f5;fontColor=#333333;strokeColor=#666666;" vertex="1" parent="1">
          <mxGeometry x="720" y="25" width="80" height="20" as="geometry" />
        </mxCell>
        <mxCell id="bBX2dSUzeOyGn-nsTEc2-66" value="O que é&#xa; ESG" style="text;spacingTop=-5;align=center;verticalAlign=middle;fontSize=36;fontColor=#CCCCCC" vertex="1" parent="1">
          <mxGeometry x="55" y="355" width="140" height="200" as="geometry" />
        </mxCell>
        <mxCell id="31" value="Mosaico de fotos (interativo)" style="text;spacingTop=-5;align=center;verticalAlign=middle;fontSize=36;fontColor=#CCCCCC" parent="1" vertex="1">
          <mxGeometry x="20" y="672" width="770" height="70" as="geometry" />
        </mxCell>
        <mxCell id="bBX2dSUzeOyGn-nsTEc2-68" value="Mosaico de fotos (interativo)" style="text;spacingTop=-5;align=center;verticalAlign=middle;fontSize=36;fontColor=#CCCCCC" vertex="1" parent="1">
          <mxGeometry x="20" y="840" width="770" height="70" as="geometry" />
        </mxCell>
        <mxCell id="bBX2dSUzeOyGn-nsTEc2-70" value="" style="verticalLabelPosition=bottom;verticalAlign=top;strokeWidth=1;shape=mxgraph.mockup.graphics.iconGrid;strokeColor=#CCCCCC;gridSize=1,1;" vertex="1" parent="1">
          <mxGeometry x="20" y="940" width="260" height="290" as="geometry" />
        </mxCell>
        <mxCell id="bBX2dSUzeOyGn-nsTEc2-69" value="Ambiental" style="text;spacingTop=-5;align=center;verticalAlign=middle;fontSize=30;fontColor=#CCCCCC" vertex="1" parent="1">
          <mxGeometry x="20" y="930" width="280" height="70" as="geometry" />
        </mxCell>
        <mxCell id="34" value="Lorem ipsum dolor sit amet, consectetur adipisicing elit, sed do eiusmod tempor incididunt ut labore et dolore magna aliqua. Ut enim ad minim veniam, quis nostrud exercitation ullamco laboris nisi ut aliquip ex ea commodo consequat. Duis aute irure dolor in reprehenderit in voluptate velit esse cillum dolore eu fugiat nulla pariatur. Excepteur sint occaecat cupidatat non proident, sunt in culpa qui officia deserunt mollit anim id est laborum." style="text;spacingTop=-5;whiteSpace=wrap;align=left" parent="1" vertex="1">
          <mxGeometry x="40" y="1010" width="220" height="200" as="geometry" />
        </mxCell>
        <mxCell id="bBX2dSUzeOyGn-nsTEc2-74" value="Lorem ipsum dolor sit amet, consectetur adipisicing elit, sed do eiusmod tempor incididunt ut labore et dolore magna aliqua. Ut enim ad minim veniam, quis nostrud exercitation ullamco laboris nisi ut aliquip ex ea commodo consequat. Duis aute irure dolor in reprehenderit in voluptate velit esse cillum dolore eu fugiat nulla pariatur. Excepteur sint occaecat cupidatat non proident, sunt in culpa qui officia deserunt mollit anim id est laborum." style="text;spacingTop=-5;whiteSpace=wrap;align=left" vertex="1" parent="1">
          <mxGeometry x="320" y="1010" width="220" height="200" as="geometry" />
        </mxCell>
        <mxCell id="bBX2dSUzeOyGn-nsTEc2-75" value="" style="verticalLabelPosition=bottom;verticalAlign=top;strokeWidth=1;shape=mxgraph.mockup.graphics.iconGrid;strokeColor=#CCCCCC;gridSize=1,1;" vertex="1" parent="1">
          <mxGeometry x="300" y="940" width="260" height="290" as="geometry" />
        </mxCell>
        <mxCell id="bBX2dSUzeOyGn-nsTEc2-76" value="Social" style="text;spacingTop=-5;align=center;verticalAlign=middle;fontSize=30;fontColor=#CCCCCC" vertex="1" parent="1">
          <mxGeometry x="300" y="930" width="230" height="70" as="geometry" />
        </mxCell>
        <mxCell id="bBX2dSUzeOyGn-nsTEc2-77" value="Lorem ipsum dolor sit amet, consectetur adipisicing elit, sed do eiusmod tempor incididunt ut labore et dolore magna aliqua. Ut enim ad minim veniam, quis nostrud exercitation ullamco laboris nisi ut aliquip ex ea commodo consequat. Duis aute irure dolor in reprehenderit in voluptate velit esse cillum dolore eu fugiat nulla pariatur. Excepteur sint occaecat cupidatat non proident, sunt in culpa qui officia deserunt mollit anim id est laborum." style="text;spacingTop=-5;whiteSpace=wrap;align=left" vertex="1" parent="1">
          <mxGeometry x="560" y="1010" width="220" height="200" as="geometry" />
        </mxCell>
        <mxCell id="bBX2dSUzeOyGn-nsTEc2-78" value="" style="verticalLabelPosition=bottom;verticalAlign=top;strokeWidth=1;shape=mxgraph.mockup.graphics.iconGrid;strokeColor=#CCCCCC;gridSize=1,1;" vertex="1" parent="1">
          <mxGeometry x="540" y="940" width="260" height="290" as="geometry" />
        </mxCell>
        <mxCell id="bBX2dSUzeOyGn-nsTEc2-79" value="Governança" style="text;spacingTop=-5;align=center;verticalAlign=middle;fontSize=30;fontColor=#CCCCCC" vertex="1" parent="1">
          <mxGeometry x="540" y="930" width="280" height="70" as="geometry" />
        </mxCell>
        <mxCell id="bBX2dSUzeOyGn-nsTEc2-80" value="Lorem ipsum dolor sit amet, consectetur adipisicing elit, sed do eiusmod tempor incididunt ut labore et dolore magna aliqua. Ut enim ad minim veniam, quis nostrud exercitation ullamco laboris nisi ut aliquip ex ea commodo consequat. Duis aute irure dolor in reprehenderit in voluptate velit esse cillum dolore eu fugiat nulla pariatur. Excepteur sint occaecat cupidatat non proident, sunt in culpa qui officia deserunt mollit anim id est laborum." style="text;spacingTop=-5;whiteSpace=wrap;align=left" vertex="1" parent="1">
          <mxGeometry x="310" y="1010" width="220" height="200" as="geometry" />
        </mxCell>
        <mxCell id="bBX2dSUzeOyGn-nsTEc2-81" value="Lorem ipsum dolor sit amet, consectetur adipisicing elit, sed do eiusmod tempor incididunt ut labore et dolore magna aliqua. Ut enim ad minim veniam, quis nostrud exercitation ullamco laboris nisi ut aliquip ex ea commodo consequat. Duis aute irure dolor in reprehenderit in voluptate velit esse cillum dolore eu fugiat nulla pariatur. Excepteur sint occaecat cupidatat non proident, sunt in culpa qui officia deserunt mollit anim id est laborum." style="text;spacingTop=-5;whiteSpace=wrap;align=left" vertex="1" parent="1">
          <mxGeometry x="560" y="1010" width="220" height="200" as="geometry" />
        </mxCell>
      </root>
    </mxGraphModel>
  </diagram>
</mxfile>
